<svg width="69" height="72" viewBox="0 0 69 72" fill="none" xmlns="http://www.w3.org/2000/svg">
<circle cx="31.1428" cy="34.0476" r="28.9524" stroke="#3584AF" stroke-width="4"/>
<circle cx="31.1905" cy="65.1905" r="6.19048" fill="#3584AF"/>
<circle cx="18.7619" cy="6.19048" r="6.19048" fill="#3584AF"/>
<circle cx="62.0953" cy="40.2381" r="6.19048" fill="#3584AF"/>
<path d="M30.6406 26.5C29.2865 26.5 28.0339 26.8359 26.8828 27.5078C25.7318 28.1797 24.8203 29.0911 24.1484 30.2422C23.4766 31.3932 23.1406 32.6458 23.1406 34C23.1406 35.3542 23.4766 36.6068 24.1484 37.7578C24.8203 38.9089 25.7318 39.8203 26.8828 40.4922C28.0339 41.1641 29.2865 41.5 30.6406 41.5C31.9948 41.5 33.2474 41.1641 34.3984 40.4922C35.5495 39.8203 36.4609 38.9089 37.1328 37.7578C37.8047 36.6068 38.1406 35.3542 38.1406 34C38.1406 32.6458 37.8047 31.3932 37.1328 30.2422C36.4609 29.0911 35.5495 28.1797 34.3984 27.5078C33.2474 26.8359 31.9948 26.5 30.6406 26.5ZM43.9688 38.3281C43.9688 38.3906 43.9323 38.4531 43.8594 38.5156C43.7865 38.5781 43.7188 38.6198 43.6563 38.6406L39.0781 40.1562V44.9375C39.0781 45.1042 39.0104 45.2396 38.875 45.3438C38.7292 45.4375 38.5781 45.4583 38.4219 45.4062L33.8594 43.9375L31.0469 47.8125C30.9531 47.9375 30.8177 48 30.6406 48C30.4636 48 30.3281 47.9375 30.2344 47.8125L27.4219 43.9375L22.8594 45.4062C22.7031 45.4583 22.5521 45.4375 22.4063 45.3438C22.2813 45.2604 22.2083 45.125 22.1875 44.9375V40.1562L17.625 38.6406C17.4583 38.5885 17.3542 38.4844 17.3125 38.3281C17.2604 38.1615 17.2813 38.0104 17.375 37.875L20.1875 34L17.375 30.125C17.2813 29.9896 17.2604 29.8385 17.3125 29.6719C17.3542 29.5156 17.4583 29.4115 17.625 29.3594L22.1875 27.8438V23.0625C22.2083 22.875 22.2813 22.7396 22.4063 22.6562C22.5521 22.5625 22.7031 22.5417 22.8594 22.5938L27.4219 24.0625L30.2344 20.1875C30.3281 20.0625 30.4636 20 30.6406 20C30.8177 20 30.9531 20.0625 31.0469 20.1875L33.8594 24.0625L38.4219 22.5938C38.5781 22.5417 38.7292 22.5625 38.875 22.6562C39.0104 22.7604 39.0781 22.8958 39.0781 23.0625V27.8438L43.6563 29.3594C43.7188 29.3802 43.7865 29.4219 43.8594 29.4844C43.9323 29.5469 43.9688 29.6094 43.9688 29.6719C44.0104 29.8281 43.9896 29.9792 43.9063 30.125L41.0781 34L43.9063 37.875C43.9896 38.0208 44.0104 38.1719 43.9688 38.3281ZM39.6406 34C39.6406 32.3646 39.2396 30.8568 38.4375 29.4766C37.6354 28.0964 36.5443 27.0052 35.1641 26.2031C33.7839 25.401 32.2761 25 30.6406 25C29.0052 25 27.4974 25.401 26.1172 26.2031C24.737 27.0052 23.6458 28.0964 22.8438 29.4766C22.0417 30.8568 21.6406 32.3646 21.6406 34C21.6406 35.2292 21.8802 36.401 22.3594 37.5156C22.8386 38.6302 23.4792 39.5885 24.2813 40.3906C25.0833 41.1927 26.0391 41.8307 27.1484 42.3047C28.2578 42.7786 29.4219 43.0156 30.6406 43.0156C32.2865 43.0156 33.7995 42.612 35.1797 41.8047C36.5599 40.9974 37.6484 39.9036 38.4453 38.5234C39.2422 37.1432 39.6406 35.6354 39.6406 34Z" fill="#3584AF"/>
</svg>
